<?xml version="1.0" encoding="UTF-8"?>
<svg version="1.1" xmlns="http://www.w3.org/2000/svg" width="1161" height="1161">
<path d="M0 0 C0.91793024 -0.00445784 1.83586048 -0.00891569 2.78160679 -0.01350862 C4.28887705 -0.01323207 4.28887705 -0.01323207 5.82659721 -0.01294994 C7.43210168 -0.01846498 7.43210168 -0.01846498 9.07004058 -0.02409142 C12.66881908 -0.03513447 16.26756871 -0.03897317 19.86636162 -0.04278088 C22.44182744 -0.04904505 25.01729235 -0.05569181 27.59275627 -0.0626936 C35.33016909 -0.08244274 43.06758319 -0.09252237 50.80501491 -0.10142139 C54.4507991 -0.10580693 58.09658184 -0.11117306 61.74236488 -0.11641026 C73.86544112 -0.13342119 85.98851645 -0.14791461 98.11160278 -0.155159 C101.256581 -0.15706882 104.40155921 -0.15898916 107.5465374 -0.16094494 C108.32818397 -0.16142868 109.10983055 -0.16191242 109.91516338 -0.16241082 C122.57289079 -0.17070835 135.2305236 -0.19604118 147.88820972 -0.22852562 C160.89030921 -0.26162127 173.89236069 -0.27961003 186.89450252 -0.28280324 C194.19199673 -0.28496605 201.48935301 -0.29368098 208.78680611 -0.31926441 C215.65357366 -0.34328267 222.52008951 -0.34678136 229.38689041 -0.33650303 C231.90474141 -0.33600737 234.42260459 -0.34233661 236.94041824 -0.35605907 C240.38332467 -0.37377082 243.82534021 -0.36667428 247.2682476 -0.35352612 C248.25971011 -0.36449536 249.25117262 -0.37546461 250.27267945 -0.38676625 C258.39800481 -0.312083 264.87803444 1.81284565 271.67837334 6.25922108 C277.544115 12.39158736 281.54322572 19.12924738 281.56259441 27.70584774 C281.56705226 28.62377798 281.5715101 29.54170822 281.57610303 30.48745453 C281.57582649 31.99472479 281.57582649 31.99472479 281.57554436 33.53244495 C281.57922105 34.60278127 281.58289773 35.67311758 281.58668584 36.77588832 C281.59772889 40.37466682 281.60156759 43.97341645 281.60537529 47.57220936 C281.61163947 50.14767518 281.61828623 52.72314009 281.62528801 55.29860401 C281.64503715 63.03601683 281.65511678 70.77343093 281.6640158 78.51086265 C281.66840135 82.15664684 281.67376748 85.80242958 281.67900467 89.44821262 C281.6960156 101.57128886 281.71050902 113.69436419 281.71775341 125.81745052 C281.71966323 128.96242874 281.72158357 132.10740695 281.72353935 135.25238514 C281.72402309 136.03403171 281.72450683 136.81567829 281.72500523 137.62101112 C281.73330277 150.27873853 281.75863559 162.93637134 281.79112003 175.59405746 C281.82421569 188.59615695 281.84220444 201.59820843 281.84539765 214.60035026 C281.84756046 221.89784447 281.8562754 229.19520075 281.88185883 236.49265385 C281.90587708 243.3594214 281.90937577 250.22593725 281.89909744 257.09273815 C281.89860178 259.61058915 281.90493102 262.12845233 281.91865349 264.64626598 C281.93636523 268.08917241 281.92926869 271.53118795 281.91612053 274.97409534 C281.9325744 276.46128911 281.9325744 276.46128911 281.94936067 277.97852719 C281.87467742 286.10385255 279.74974877 292.58388218 275.30337334 299.38422108 C269.17100706 305.24996274 262.43334704 309.24907346 253.85674667 309.26844215 C252.93881643 309.2729 252.02088619 309.27735784 251.07513988 309.28195077 C250.07029304 309.28176641 249.0654462 309.28158205 248.03014946 309.2813921 C246.95981315 309.28506879 245.88947684 309.28874547 244.78670609 309.29253358 C241.18792759 309.30357663 237.58917797 309.30741533 233.99038506 309.31122303 C231.41491924 309.31748721 228.83945432 309.32413397 226.2639904 309.33113575 C218.52657758 309.35088489 210.78916348 309.36096452 203.05173177 309.36986354 C199.40594758 309.37424909 195.76016484 309.37961522 192.11438179 309.38485241 C179.99130556 309.40186334 167.86823022 309.41635676 155.74514389 309.42360115 C152.60016567 309.42551097 149.45518746 309.42743132 146.31020927 309.42938709 C145.5285627 309.42987083 144.74691613 309.43035457 143.94158329 309.43085297 C131.28385589 309.43915051 118.62622307 309.46448333 105.96853696 309.49696777 C92.96643746 309.53006343 79.96438599 309.54805218 66.96224415 309.55124539 C59.66474994 309.5534082 52.36739366 309.56212314 45.06994057 309.58770657 C38.20317301 309.61172482 31.33665716 309.61522351 24.46985626 309.60494518 C21.95200526 309.60444952 19.43414208 309.61077876 16.91632843 309.62450123 C13.47342201 309.64221297 10.03140646 309.63511643 6.58849907 309.62196827 C5.10130531 309.63842214 5.10130531 309.63842214 3.58406723 309.65520841 C-4.54125813 309.58052516 -11.02128777 307.45559651 -17.82162666 303.00922108 C-23.68736832 296.8768548 -27.68647904 290.13919478 -27.70584774 281.56259441 C-27.71030558 280.64466417 -27.71476343 279.72673393 -27.71935636 278.78098762 C-27.719172 277.77614078 -27.71898763 276.77129394 -27.71879768 275.7359972 C-27.72247437 274.66566089 -27.72615106 273.59532458 -27.72993916 272.49255383 C-27.74098221 268.89377533 -27.74482091 265.29502571 -27.74862862 261.6962328 C-27.75489279 259.12076698 -27.76153955 256.54530206 -27.76854134 253.96983814 C-27.78829048 246.23242532 -27.79837011 238.49501122 -27.80726913 230.75757951 C-27.81165467 227.11179532 -27.8170208 223.46601258 -27.822258 219.82022953 C-27.83926893 207.6971533 -27.85376235 195.57407796 -27.86100674 183.45099163 C-27.86291656 180.30601341 -27.8648369 177.1610352 -27.86679268 174.01605701 C-27.86727642 173.23441044 -27.86776016 172.45276387 -27.86825856 171.64743103 C-27.8765561 158.98970363 -27.90188892 146.33207081 -27.93437336 133.6743847 C-27.96746901 120.6722852 -27.98545777 107.67023373 -27.98865098 94.66809189 C-27.99081379 87.37059768 -27.99952872 80.0732414 -28.02511215 72.77578831 C-28.04913041 65.90902075 -28.0526291 59.04250491 -28.04235077 52.175704 C-28.04185511 49.657853 -28.04818435 47.13998982 -28.06190681 44.62217617 C-28.07961856 41.17926975 -28.07252202 37.7372542 -28.05937386 34.29434681 C-28.0703431 33.3028843 -28.08131235 32.31142179 -28.092614 31.28991497 C-28.01793074 23.16458961 -25.89300209 16.68455997 -21.44662666 9.88422108 C-15.31426038 4.01847942 -8.57660036 0.0193687 0 0 Z M-5.57162666 22.13422108 C-7.47391311 24.97636523 -7.82189726 27.25074626 -7.82330894 30.62890339 C-7.82852444 31.52963345 -7.83373993 32.43036351 -7.83911347 33.35838842 C-7.83465203 34.34398229 -7.83019059 35.32957616 -7.82559395 36.34503651 C-7.82871393 37.3951049 -7.83183391 38.44517329 -7.83504844 39.52706194 C-7.84304621 43.05697883 -7.83669779 46.58672468 -7.83041573 50.11664295 C-7.83312479 52.64273142 -7.83668525 55.1688191 -7.84103584 57.69490528 C-7.84922259 63.85062058 -7.84800528 70.00627221 -7.84221056 76.16198838 C-7.83769635 81.1642469 -7.83708013 86.16649175 -7.83925819 91.16875172 C-7.83956466 91.8803227 -7.83987113 92.59189369 -7.84018688 93.32502744 C-7.84082632 94.77050738 -7.84147475 96.21598732 -7.84213206 97.66146725 C-7.84783705 111.22016161 -7.84127483 124.77882894 -7.83053133 138.33751887 C-7.82159566 149.97500736 -7.82314766 161.61245596 -7.83236885 173.24994373 C-7.84306851 186.75966216 -7.84728771 200.26935689 -7.84114432 213.77907896 C-7.84050722 215.21928278 -7.83987847 216.65948661 -7.83925819 218.09969044 C-7.83894964 218.80832398 -7.83864109 219.51695752 -7.83832319 220.2470648 C-7.83659534 225.24411889 -7.8395133 230.24115796 -7.8442173 235.23820972 C-7.85040765 241.96210099 -7.84600911 248.68590513 -7.83442879 255.4097929 C-7.83177774 257.88177776 -7.83255482 260.35376894 -7.83695412 262.8257513 C-7.84239341 266.19172278 -7.83559493 269.55744987 -7.82559395 272.92340565 C-7.83005539 273.90899951 -7.83451684 274.89459338 -7.83911347 275.91005373 C-7.83389798 276.81078379 -7.82868248 277.71151385 -7.82330894 278.63953876 C-7.82298424 279.41655659 -7.82265954 280.19357442 -7.82232499 280.99413824 C-7.52803519 283.50633913 -6.97989712 285.0301701 -5.57162666 287.13422108 C-2.72948251 289.03650752 -0.45510148 289.38449167 2.92305565 289.38590336 C3.82378571 289.39111885 4.72451577 289.39633435 5.65254068 289.40170789 C6.63813455 289.39724644 7.62372842 289.392785 8.63918877 289.38818836 C9.68925716 289.39130834 10.73932555 289.39442832 11.8212142 289.39764285 C15.35113109 289.40564062 18.88087694 289.3992922 22.41079521 289.39301014 C24.93688368 289.39571921 27.46297136 289.39927966 29.98905754 289.40363026 C36.14477284 289.411817 42.30042447 289.41059969 48.45614064 289.40480497 C53.45839916 289.40029076 58.46064401 289.39967454 63.46290398 289.40185261 C64.53026046 289.40231231 64.53026046 289.40231231 65.6191797 289.40278129 C67.06465964 289.40342073 68.51013958 289.40406916 69.95561951 289.40472648 C83.51431387 289.41043146 97.0729812 289.40386924 110.63167113 289.39312574 C122.26915962 289.38419008 133.90660822 289.38574207 145.54409599 289.39496326 C159.05381442 289.40566292 172.56350915 289.40988212 186.07323122 289.40373874 C187.51343504 289.40310163 188.95363887 289.40247289 190.3938427 289.40185261 C191.10247624 289.40154406 191.81110978 289.40123551 192.54121706 289.4009176 C197.53827115 289.39918975 202.53531022 289.40210771 207.53236198 289.40681171 C214.25625325 289.41300206 220.98005739 289.40860353 227.70394516 289.3970232 C230.17593002 289.39437216 232.6479212 289.39514924 235.11990356 289.39954853 C238.48587504 289.40498782 241.85160213 289.39818935 245.21755791 289.38818836 C246.20315177 289.39264981 247.18874564 289.39711125 248.20420599 289.40170789 C249.10493605 289.39649239 250.00566611 289.3912769 250.93369102 289.38590336 C251.71070885 289.38557865 252.48772668 289.38525395 253.2882905 289.3849194 C255.80049139 289.0906296 257.32432236 288.54249153 259.42837334 287.13422108 C261.33065978 284.29207692 261.67864393 282.01769589 261.68005562 278.63953876 C261.68527111 277.7388087 261.69048661 276.83807864 261.69586015 275.91005373 C261.6913987 274.92445986 261.68693726 273.938866 261.68234062 272.92340565 C261.6854606 271.87333725 261.68858058 270.82326886 261.69179511 269.74138021 C261.69979288 266.21146332 261.69344446 262.68171748 261.6871624 259.1517992 C261.68987147 256.62571073 261.69343192 254.09962305 261.69778252 251.57353687 C261.70596926 245.41782157 261.70475195 239.26216995 261.69895723 233.10645378 C261.69444302 228.10419526 261.6938268 223.10195041 261.69600487 218.09969044 C261.69646457 217.03233396 261.69646457 217.03233396 261.69693355 215.94341472 C261.69757299 214.49793477 261.69822142 213.05245484 261.69887874 211.6069749 C261.70458372 198.04828054 261.6980215 184.48961321 261.687278 170.93092328 C261.67834234 159.29343479 261.67989433 147.65598619 261.68911552 136.01849842 C261.69981518 122.50877999 261.70403438 108.99908527 261.697891 95.48936319 C261.69725389 94.04915937 261.69662515 92.60895555 261.69600487 91.16875172 C261.69569632 90.46011818 261.69538777 89.75148464 261.69506986 89.02137735 C261.69334201 84.02432327 261.69625997 79.02728419 261.70096397 74.03023243 C261.70715432 67.30634116 261.70275579 60.58253703 261.69117546 53.85864925 C261.68852442 51.3866644 261.6893015 48.91467321 261.69370079 46.44269085 C261.69914008 43.07671937 261.69234161 39.71099228 261.68234062 36.34503651 C261.68680207 35.35944264 261.69126351 34.37384877 261.69586015 33.35838842 C261.69064465 32.45765836 261.68542916 31.5569283 261.68005562 30.62890339 C261.67973091 29.85188556 261.67940621 29.07486773 261.67907166 28.27430391 C261.38478186 25.76210303 260.83664379 24.23827205 259.42837334 22.13422108 C256.58622918 20.23193463 254.31184815 19.88395048 250.93369102 19.8825388 C250.03296096 19.8773233 249.1322309 19.87210781 248.20420599 19.86673427 C247.21861212 19.87119571 246.23301826 19.87565715 245.21755791 19.88025379 C244.16748951 19.87713381 243.11742112 19.87401383 242.03553247 19.8707993 C238.50561558 19.86280153 234.97586974 19.86914995 231.44595146 19.87543201 C228.91986299 19.87272295 226.39377531 19.86916249 223.86768913 19.8648119 C217.71197383 19.85662515 211.55632221 19.85784246 205.40060604 19.86363718 C200.39834752 19.86815139 195.39610267 19.86876761 190.3938427 19.86658955 C189.68227171 19.86628308 188.97070072 19.86597661 188.23756698 19.86566086 C186.79208703 19.86502142 185.34660709 19.86437299 183.90112716 19.86371568 C170.3424328 19.85801069 156.78376547 19.86457291 143.22507554 19.87531641 C131.58758705 19.88425208 119.95013845 19.88270008 108.31265068 19.87347889 C94.80293225 19.86277923 81.29323753 19.85856003 67.78351545 19.86470342 C66.34331163 19.86534052 64.90310781 19.86596927 63.46290398 19.86658955 C62.75427044 19.8668981 62.0456369 19.86720665 61.31552961 19.86752455 C56.31847553 19.8692524 51.32143645 19.86633444 46.32438469 19.86163044 C39.60049342 19.85544009 32.87668929 19.85983863 26.15280151 19.87141895 C23.68081666 19.87407 21.20882547 19.87329292 18.73684311 19.86889362 C15.37087163 19.86345433 12.00514454 19.87025281 8.63918877 19.88025379 C7.16079797 19.87356163 7.16079797 19.87356163 5.65254068 19.86673427 C4.75181062 19.87194976 3.85108056 19.87716526 2.92305565 19.8825388 C2.14603782 19.8828635 1.36901999 19.8831882 0.56845617 19.88352275 C-1.94374471 20.17781255 -3.46757569 20.72595062 -5.57162666 22.13422108 Z " fill="#D1D9E5" transform="translate(451.571626663208,460.86577892303467)"/>
<path d="M0 0 C0.85770493 -0.0071553 1.71540985 -0.01431061 2.59910583 -0.02168274 C3.53214035 -0.02437164 4.46517487 -0.02706055 5.42648315 -0.02983093 C6.4156221 -0.03640213 7.40476105 -0.04297333 8.4238739 -0.04974365 C11.69801919 -0.06945625 14.97211861 -0.08113592 18.24630737 -0.09111023 C19.3665115 -0.09518576 20.48671562 -0.09926128 21.64086533 -0.10346031 C27.57216965 -0.12431421 33.50345089 -0.13861785 39.43478394 -0.147995 C45.54779821 -0.1590467 51.66044722 -0.19343468 57.7733326 -0.23316669 C62.48497168 -0.25936959 67.1965243 -0.26769021 71.90822983 -0.27127647 C74.16077003 -0.27613435 76.41330657 -0.28772539 78.6657753 -0.30631447 C81.82718702 -0.33077926 84.98766111 -0.32972699 88.1491394 -0.32279968 C89.07002853 -0.33560974 89.99091766 -0.3484198 90.93971252 -0.36161804 C98.87034237 -0.29865516 105.29755598 1.93819174 111.92599487 6.27217102 C117.68710356 12.29514828 121.77458111 19.02542492 121.82316589 27.47117615 C121.83389885 28.75773354 121.83389885 28.75773354 121.84484863 30.07028198 C121.84753754 31.0033165 121.85022644 31.93635101 121.85299683 32.8976593 C121.85956802 33.88679825 121.86613922 34.87593719 121.87290955 35.89505005 C121.89262214 39.16919534 121.90430181 42.44329476 121.91427612 45.71748352 C121.91835165 46.83768764 121.92242718 47.95789177 121.92662621 49.11204147 C121.94748011 55.0433458 121.96178375 60.97462704 121.97116089 66.90596008 C121.9822126 73.01897436 122.01660057 79.13162337 122.05633259 85.24450874 C122.08253549 89.95614783 122.0908561 94.66770044 122.09444237 99.37940598 C122.09930024 101.63194617 122.11089129 103.88448272 122.12948036 106.13695145 C122.15394515 109.29836317 122.15289288 112.45883726 122.14596558 115.62031555 C122.16518066 117.00164925 122.16518066 117.00164925 122.18478394 118.41088867 C122.12182105 126.34151851 119.88497415 132.76873212 115.55099487 139.39717102 C109.52801761 145.15827971 102.79774098 149.24575726 94.35198975 149.29434204 C93.49428482 149.30149734 92.6365799 149.30865265 91.75288391 149.31602478 C90.8198494 149.31871368 89.88681488 149.32140259 88.92550659 149.32417297 C87.93636765 149.33074417 86.9472287 149.33731537 85.92811584 149.34408569 C82.65397055 149.36379829 79.37987113 149.37547796 76.10568237 149.38545227 C74.98547825 149.3895278 73.86527412 149.39360332 72.71112442 149.39780235 C66.7798201 149.41865625 60.84853885 149.4329599 54.91720581 149.44233704 C48.80419153 149.45338874 42.69154252 149.48777672 36.57865715 149.52750874 C31.86701807 149.55371163 27.15546545 149.56203225 22.44375992 149.56561852 C20.19121972 149.57047639 17.93868318 149.58206743 15.68621445 149.60065651 C12.52480272 149.6251213 9.36432863 149.62406903 6.20285034 149.61714172 C4.82151665 149.63635681 4.82151665 149.63635681 3.41227722 149.65596008 C-4.51835262 149.5929972 -10.94556623 147.3561503 -17.57400513 143.02217102 C-23.33511381 136.99919376 -27.42259137 130.26891712 -27.47117615 121.82316589 C-27.47833145 120.96546097 -27.48548676 120.10775604 -27.49285889 119.22406006 C-27.49554779 118.29102554 -27.49823669 117.35799103 -27.50100708 116.39668274 C-27.50757828 115.40754379 -27.51414948 114.41840485 -27.5209198 113.39929199 C-27.5406324 110.1251467 -27.55231206 106.85104728 -27.56228638 103.57685852 C-27.5663619 102.4566544 -27.57043743 101.33645027 -27.57463646 100.18230057 C-27.59549036 94.25099625 -27.609794 88.319715 -27.61917114 82.38838196 C-27.63022285 76.27536768 -27.66461083 70.16271867 -27.70434284 64.0498333 C-27.73054574 59.33819421 -27.73886636 54.6266416 -27.74245262 49.91493607 C-27.7473105 47.66239587 -27.75890154 45.40985933 -27.77749062 43.15739059 C-27.8019554 39.99597887 -27.80090313 36.83550478 -27.79397583 33.67402649 C-27.80678589 32.75313736 -27.81959595 31.83224823 -27.83279419 30.88345337 C-27.7698313 22.95282353 -25.5329844 16.52560992 -21.19900513 9.89717102 C-15.17602786 4.13606233 -8.44575123 0.04858478 0 0 Z " fill="#00AEFF" transform="translate(819.3240051269531,828.8528289794922)"/>
<path d="M0 0 C0.85770493 -0.0071553 1.71540985 -0.01431061 2.59910583 -0.02168274 C3.53214035 -0.02437164 4.46517487 -0.02706055 5.42648315 -0.02983093 C6.4156221 -0.03640213 7.40476105 -0.04297333 8.4238739 -0.04974365 C11.69801919 -0.06945625 14.97211861 -0.08113592 18.24630737 -0.09111023 C19.3665115 -0.09518576 20.48671562 -0.09926128 21.64086533 -0.10346031 C27.57216965 -0.12431421 33.50345089 -0.13861785 39.43478394 -0.147995 C45.54779821 -0.1590467 51.66044722 -0.19343468 57.7733326 -0.23316669 C62.48497168 -0.25936959 67.1965243 -0.26769021 71.90822983 -0.27127647 C74.16077003 -0.27613435 76.41330657 -0.28772539 78.6657753 -0.30631447 C81.82718702 -0.33077926 84.98766111 -0.32972699 88.1491394 -0.32279968 C89.07002853 -0.33560974 89.99091766 -0.3484198 90.93971252 -0.36161804 C98.87034237 -0.29865516 105.29755598 1.93819174 111.92599487 6.27217102 C117.68710356 12.29514828 121.77458111 19.02542492 121.82316589 27.47117615 C121.83389885 28.75773354 121.83389885 28.75773354 121.84484863 30.07028198 C121.84753754 31.0033165 121.85022644 31.93635101 121.85299683 32.8976593 C121.85956802 33.88679825 121.86613922 34.87593719 121.87290955 35.89505005 C121.89262214 39.16919534 121.90430181 42.44329476 121.91427612 45.71748352 C121.91835165 46.83768764 121.92242718 47.95789177 121.92662621 49.11204147 C121.94748011 55.0433458 121.96178375 60.97462704 121.97116089 66.90596008 C121.9822126 73.01897436 122.01660057 79.13162337 122.05633259 85.24450874 C122.08253549 89.95614783 122.0908561 94.66770044 122.09444237 99.37940598 C122.09930024 101.63194617 122.11089129 103.88448272 122.12948036 106.13695145 C122.15394515 109.29836317 122.15289288 112.45883726 122.14596558 115.62031555 C122.16518066 117.00164925 122.16518066 117.00164925 122.18478394 118.41088867 C122.12182105 126.34151851 119.88497415 132.76873212 115.55099487 139.39717102 C109.52801761 145.15827971 102.79774098 149.24575726 94.35198975 149.29434204 C93.49428482 149.30149734 92.6365799 149.30865265 91.75288391 149.31602478 C90.8198494 149.31871368 89.88681488 149.32140259 88.92550659 149.32417297 C87.93636765 149.33074417 86.9472287 149.33731537 85.92811584 149.34408569 C82.65397055 149.36379829 79.37987113 149.37547796 76.10568237 149.38545227 C74.98547825 149.3895278 73.86527412 149.39360332 72.71112442 149.39780235 C66.7798201 149.41865625 60.84853885 149.4329599 54.91720581 149.44233704 C48.80419153 149.45338874 42.69154252 149.48777672 36.57865715 149.52750874 C31.86701807 149.55371163 27.15546545 149.56203225 22.44375992 149.56561852 C20.19121972 149.57047639 17.93868318 149.58206743 15.68621445 149.60065651 C12.52480272 149.6251213 9.36432863 149.62406903 6.20285034 149.61714172 C4.82151665 149.63635681 4.82151665 149.63635681 3.41227722 149.65596008 C-4.51835262 149.5929972 -10.94556623 147.3561503 -17.57400513 143.02217102 C-23.33511381 136.99919376 -27.42259137 130.26891712 -27.47117615 121.82316589 C-27.47833145 120.96546097 -27.48548676 120.10775604 -27.49285889 119.22406006 C-27.49554779 118.29102554 -27.49823669 117.35799103 -27.50100708 116.39668274 C-27.50757828 115.40754379 -27.51414948 114.41840485 -27.5209198 113.39929199 C-27.5406324 110.1251467 -27.55231206 106.85104728 -27.56228638 103.57685852 C-27.5663619 102.4566544 -27.57043743 101.33645027 -27.57463646 100.18230057 C-27.59549036 94.25099625 -27.609794 88.319715 -27.61917114 82.38838196 C-27.63022285 76.27536768 -27.66461083 70.16271867 -27.70434284 64.0498333 C-27.73054574 59.33819421 -27.73886636 54.6266416 -27.74245262 49.91493607 C-27.7473105 47.66239587 -27.75890154 45.40985933 -27.77749062 43.15739059 C-27.8019554 39.99597887 -27.80090313 36.83550478 -27.79397583 33.67402649 C-27.80678589 32.75313736 -27.81959595 31.83224823 -27.83279419 30.88345337 C-27.7698313 22.95282353 -25.5329844 16.52560992 -21.19900513 9.89717102 C-15.17602786 4.13606233 -8.44575123 0.04858478 0 0 Z " fill="#080D18" transform="translate(243.32400512695313,828.8528289794922)"/>
<path d="M0 0 C0.85770493 -0.0071553 1.71540985 -0.01431061 2.59910583 -0.02168274 C3.53214035 -0.02437164 4.46517487 -0.02706055 5.42648315 -0.02983093 C6.4156221 -0.03640213 7.40476105 -0.04297333 8.4238739 -0.04974365 C11.69801919 -0.06945625 14.97211861 -0.08113592 18.24630737 -0.09111023 C19.3665115 -0.09518576 20.48671562 -0.09926128 21.64086533 -0.10346031 C27.57216965 -0.12431421 33.50345089 -0.13861785 39.43478394 -0.147995 C45.54779821 -0.1590467 51.66044722 -0.19343468 57.7733326 -0.23316669 C62.48497168 -0.25936959 67.1965243 -0.26769021 71.90822983 -0.27127647 C74.16077003 -0.27613435 76.41330657 -0.28772539 78.6657753 -0.30631447 C81.82718702 -0.33077926 84.98766111 -0.32972699 88.1491394 -0.32279968 C89.07002853 -0.33560974 89.99091766 -0.3484198 90.93971252 -0.36161804 C98.87034237 -0.29865516 105.29755598 1.93819174 111.92599487 6.27217102 C117.68710356 12.29514828 121.77458111 19.02542492 121.82316589 27.47117615 C121.83389885 28.75773354 121.83389885 28.75773354 121.84484863 30.07028198 C121.84753754 31.0033165 121.85022644 31.93635101 121.85299683 32.8976593 C121.85956802 33.88679825 121.86613922 34.87593719 121.87290955 35.89505005 C121.89262214 39.16919534 121.90430181 42.44329476 121.91427612 45.71748352 C121.91835165 46.83768764 121.92242718 47.95789177 121.92662621 49.11204147 C121.94748011 55.0433458 121.96178375 60.97462704 121.97116089 66.90596008 C121.9822126 73.01897436 122.01660057 79.13162337 122.05633259 85.24450874 C122.08253549 89.95614783 122.0908561 94.66770044 122.09444237 99.37940598 C122.09930024 101.63194617 122.11089129 103.88448272 122.12948036 106.13695145 C122.15394515 109.29836317 122.15289288 112.45883726 122.14596558 115.62031555 C122.16518066 117.00164925 122.16518066 117.00164925 122.18478394 118.41088867 C122.12182105 126.34151851 119.88497415 132.76873212 115.55099487 139.39717102 C109.52801761 145.15827971 102.79774098 149.24575726 94.35198975 149.29434204 C93.49428482 149.30149734 92.6365799 149.30865265 91.75288391 149.31602478 C90.8198494 149.31871368 89.88681488 149.32140259 88.92550659 149.32417297 C87.93636765 149.33074417 86.9472287 149.33731537 85.92811584 149.34408569 C82.65397055 149.36379829 79.37987113 149.37547796 76.10568237 149.38545227 C74.98547825 149.3895278 73.86527412 149.39360332 72.71112442 149.39780235 C66.7798201 149.41865625 60.84853885 149.4329599 54.91720581 149.44233704 C48.80419153 149.45338874 42.69154252 149.48777672 36.57865715 149.52750874 C31.86701807 149.55371163 27.15546545 149.56203225 22.44375992 149.56561852 C20.19121972 149.57047639 17.93868318 149.58206743 15.68621445 149.60065651 C12.52480272 149.6251213 9.36432863 149.62406903 6.20285034 149.61714172 C4.82151665 149.63635681 4.82151665 149.63635681 3.41227722 149.65596008 C-4.51835262 149.5929972 -10.94556623 147.3561503 -17.57400513 143.02217102 C-23.33511381 136.99919376 -27.42259137 130.26891712 -27.47117615 121.82316589 C-27.47833145 120.96546097 -27.48548676 120.10775604 -27.49285889 119.22406006 C-27.49554779 118.29102554 -27.49823669 117.35799103 -27.50100708 116.39668274 C-27.50757828 115.40754379 -27.51414948 114.41840485 -27.5209198 113.39929199 C-27.5406324 110.1251467 -27.55231206 106.85104728 -27.56228638 103.57685852 C-27.5663619 102.4566544 -27.57043743 101.33645027 -27.57463646 100.18230057 C-27.59549036 94.25099625 -27.609794 88.319715 -27.61917114 82.38838196 C-27.63022285 76.27536768 -27.66461083 70.16271867 -27.70434284 64.0498333 C-27.73054574 59.33819421 -27.73886636 54.6266416 -27.74245262 49.91493607 C-27.7473105 47.66239587 -27.75890154 45.40985933 -27.77749062 43.15739059 C-27.8019554 39.99597887 -27.80090313 36.83550478 -27.79397583 33.67402649 C-27.80678589 32.75313736 -27.81959595 31.83224823 -27.83279419 30.88345337 C-27.7698313 22.95282353 -25.5329844 16.52560992 -21.19900513 9.89717102 C-15.17602786 4.13606233 -8.44575123 0.04858478 0 0 Z " fill="#080D18" transform="translate(819.3240051269531,252.8528289794922)"/>
<path d="M0 0 C0.85770493 -0.0071553 1.71540985 -0.01431061 2.59910583 -0.02168274 C3.53214035 -0.02437164 4.46517487 -0.02706055 5.42648315 -0.02983093 C6.4156221 -0.03640213 7.40476105 -0.04297333 8.4238739 -0.04974365 C11.69801919 -0.06945625 14.97211861 -0.08113592 18.24630737 -0.09111023 C19.3665115 -0.09518576 20.48671562 -0.09926128 21.64086533 -0.10346031 C27.57216965 -0.12431421 33.50345089 -0.13861785 39.43478394 -0.147995 C45.54779821 -0.1590467 51.66044722 -0.19343468 57.7733326 -0.23316669 C62.48497168 -0.25936959 67.1965243 -0.26769021 71.90822983 -0.27127647 C74.16077003 -0.27613435 76.41330657 -0.28772539 78.6657753 -0.30631447 C81.82718702 -0.33077926 84.98766111 -0.32972699 88.1491394 -0.32279968 C89.07002853 -0.33560974 89.99091766 -0.3484198 90.93971252 -0.36161804 C98.87034237 -0.29865516 105.29755598 1.93819174 111.92599487 6.27217102 C117.68710356 12.29514828 121.77458111 19.02542492 121.82316589 27.47117615 C121.83389885 28.75773354 121.83389885 28.75773354 121.84484863 30.07028198 C121.84753754 31.0033165 121.85022644 31.93635101 121.85299683 32.8976593 C121.85956802 33.88679825 121.86613922 34.87593719 121.87290955 35.89505005 C121.89262214 39.16919534 121.90430181 42.44329476 121.91427612 45.71748352 C121.91835165 46.83768764 121.92242718 47.95789177 121.92662621 49.11204147 C121.94748011 55.0433458 121.96178375 60.97462704 121.97116089 66.90596008 C121.9822126 73.01897436 122.01660057 79.13162337 122.05633259 85.24450874 C122.08253549 89.95614783 122.0908561 94.66770044 122.09444237 99.37940598 C122.09930024 101.63194617 122.11089129 103.88448272 122.12948036 106.13695145 C122.15394515 109.29836317 122.15289288 112.45883726 122.14596558 115.62031555 C122.16518066 117.00164925 122.16518066 117.00164925 122.18478394 118.41088867 C122.12182105 126.34151851 119.88497415 132.76873212 115.55099487 139.39717102 C109.52801761 145.15827971 102.79774098 149.24575726 94.35198975 149.29434204 C93.49428482 149.30149734 92.6365799 149.30865265 91.75288391 149.31602478 C90.8198494 149.31871368 89.88681488 149.32140259 88.92550659 149.32417297 C87.93636765 149.33074417 86.9472287 149.33731537 85.92811584 149.34408569 C82.65397055 149.36379829 79.37987113 149.37547796 76.10568237 149.38545227 C74.98547825 149.3895278 73.86527412 149.39360332 72.71112442 149.39780235 C66.7798201 149.41865625 60.84853885 149.4329599 54.91720581 149.44233704 C48.80419153 149.45338874 42.69154252 149.48777672 36.57865715 149.52750874 C31.86701807 149.55371163 27.15546545 149.56203225 22.44375992 149.56561852 C20.19121972 149.57047639 17.93868318 149.58206743 15.68621445 149.60065651 C12.52480272 149.6251213 9.36432863 149.62406903 6.20285034 149.61714172 C4.82151665 149.63635681 4.82151665 149.63635681 3.41227722 149.65596008 C-4.51835262 149.5929972 -10.94556623 147.3561503 -17.57400513 143.02217102 C-23.33511381 136.99919376 -27.42259137 130.26891712 -27.47117615 121.82316589 C-27.47833145 120.96546097 -27.48548676 120.10775604 -27.49285889 119.22406006 C-27.49554779 118.29102554 -27.49823669 117.35799103 -27.50100708 116.39668274 C-27.50757828 115.40754379 -27.51414948 114.41840485 -27.5209198 113.39929199 C-27.5406324 110.1251467 -27.55231206 106.85104728 -27.56228638 103.57685852 C-27.5663619 102.4566544 -27.57043743 101.33645027 -27.57463646 100.18230057 C-27.59549036 94.25099625 -27.609794 88.319715 -27.61917114 82.38838196 C-27.63022285 76.27536768 -27.66461083 70.16271867 -27.70434284 64.0498333 C-27.73054574 59.33819421 -27.73886636 54.6266416 -27.74245262 49.91493607 C-27.7473105 47.66239587 -27.75890154 45.40985933 -27.77749062 43.15739059 C-27.8019554 39.99597887 -27.80090313 36.83550478 -27.79397583 33.67402649 C-27.80678589 32.75313736 -27.81959595 31.83224823 -27.83279419 30.88345337 C-27.7698313 22.95282353 -25.5329844 16.52560992 -21.19900513 9.89717102 C-15.17602786 4.13606233 -8.44575123 0.04858478 0 0 Z " fill="#080D18" transform="translate(243.32400512695313,252.8528289794922)"/>
</svg>
